<?xml version="1.0"?><svg width="512" height="512" viewBox="0 0 512 512" xmlns="http://www.w3.org/2000/svg">
  <defs>
    <linearGradient id="bgGrad" x1="0%" y1="0%" x2="100%" y2="100%">
      <stop offset="0%" stop-color="#243347"></stop>
      <stop offset="100%" stop-color="#0f172a"></stop>
    </linearGradient>
    <radialGradient id="topGlow" cx="26%" cy="18%" r="65%">
      <stop offset="0%" stop-color="#ffffff" stop-opacity="0.16"></stop>
      <stop offset="100%" stop-color="#ffffff" stop-opacity="0"></stop>
    </radialGradient>
    <radialGradient id="botShade" cx="78%" cy="88%" r="60%">
      <stop offset="0%" stop-color="#000000" stop-opacity="0.30"></stop>
      <stop offset="100%" stop-color="#000000" stop-opacity="0"></stop>
    </radialGradient>
    <linearGradient id="woodGrad" x1="10%" y1="0%" x2="90%" y2="100%">
      <stop offset="0%" stop-color="#a3d84a"></stop>
      <stop offset="55%" stop-color="#8BC34A"></stop>
      <stop offset="100%" stop-color="#5a8f0f"></stop>
    </linearGradient>
    <linearGradient id="cyanGrad" x1="0%" y1="0%" x2="100%" y2="100%">
      <stop offset="0%" stop-color="#7dd8fd"></stop>
      <stop offset="55%" stop-color="#38bdf8"></stop>
      <stop offset="100%" stop-color="#0369a1"></stop>
    </linearGradient>
    <filter id="softShadow" x="-30%" y="-30%" width="160%" height="160%">
      <feDropShadow dx="0" dy="7" stdDeviation="9" flood-color="#000000" flood-opacity="0.38"></feDropShadow>
    </filter>
    <filter id="containerShadow" x="-60%" y="-60%" width="220%" height="220%">
      <feDropShadow dx="0" dy="3" stdDeviation="4" flood-color="#04202e" flood-opacity="0.45"></feDropShadow>
    </filter>
  </defs>

  
  <rect x="0" y="0" width="512" height="512" rx="84" ry="84" fill="url(#bgGrad)"></rect>
  <rect x="0" y="0" width="512" height="512" rx="84" ry="84" fill="url(#topGlow)"></rect>
  <rect x="0" y="0" width="512" height="512" rx="84" ry="84" fill="url(#botShade)"></rect>
  <rect x="1.5" y="1.5" width="509" height="509" rx="82.5" ry="82.5" fill="none" stroke="#ffffff" stroke-opacity="0.10" stroke-width="2"></rect>

  
  <g filter="url(#softShadow)">
    
    <ellipse cx="256" cy="248" rx="150" ry="120" fill="#8BC34A" opacity="0.06"></ellipse>

    
    <path d="M150,196 L200,336 L256,244 L312,336 L362,196" fill="none" stroke="url(#woodGrad)" stroke-width="58" stroke-linecap="round" stroke-linejoin="round"></path>

    
    <path d="M150,196 L200,336 L256,244 L312,336 L362,196" fill="none" stroke="#4d7c0f" stroke-width="58" stroke-linecap="round" stroke-linejoin="round" opacity="0.16" stroke-dasharray="1.5 13"></path>

    
    <path d="M150,196 L200,336 L256,244 L312,336 L362,196" fill="none" stroke="#e3f4c8" stroke-width="9" stroke-linecap="round" stroke-linejoin="round" opacity="0.30" transform="translate(-7,-7)"></path>

    
    <g stroke="#3f6b0c" stroke-width="2.4" fill="none" opacity="0.55">
      <circle cx="150" cy="196" r="22"></circle>
      <circle cx="150" cy="196" r="13"></circle>
      <circle cx="362" cy="196" r="22"></circle>
      <circle cx="362" cy="196" r="13"></circle>
    </g>
    <circle cx="150" cy="196" r="5" fill="#3f6b0c" opacity="0.6"></circle>
    <circle cx="362" cy="196" r="5" fill="#3f6b0c" opacity="0.6"></circle>

    
    <g filter="url(#containerShadow)">
      
      <rect x="194" y="150" width="56" height="56" rx="9" fill="url(#cyanGrad)" stroke="#0c4a6e" stroke-width="1.5"></rect>
      <rect x="194" y="150" width="26" height="26" rx="6" fill="#ffffff" opacity="0.22"></rect>
      <path d="M222,158 V192 M203,175 H241" stroke="#0c4a6e" stroke-width="2" stroke-linecap="round" opacity="0.35"></path>

      
      <rect x="262" y="150" width="56" height="56" rx="9" fill="url(#cyanGrad)" stroke="#0c4a6e" stroke-width="1.5"></rect>
      <rect x="262" y="150" width="26" height="26" rx="6" fill="#ffffff" opacity="0.22"></rect>
      <path d="M290,158 V192 M271,175 H309" stroke="#0c4a6e" stroke-width="2" stroke-linecap="round" opacity="0.35"></path>

      
      <rect x="228" y="90" width="56" height="56" rx="9" fill="url(#cyanGrad)" stroke="#0c4a6e" stroke-width="1.5"></rect>
      <rect x="228" y="90" width="26" height="26" rx="6" fill="#ffffff" opacity="0.25"></rect>
      <path d="M256,98 V132 M237,115 H275" stroke="#0c4a6e" stroke-width="2" stroke-linecap="round" opacity="0.35"></path>
    </g>
  </g>
</svg>